<?xml version="1.0" encoding="utf-8"?><!DOCTYPE svg PUBLIC "-//W3C//DTD SVG 1.1//EN" "http://www.w3.org/Graphics/SVG/1.1/DTD/svg11.dtd"><svg version="1.1" xmlns="http://www.w3.org/2000/svg" xmlns:xlink="http://www.w3.org/1999/xlink" width="35" height="32" viewBox="0 0 35 32" data-code="57386" data-tags="telescope,astronomy"><g fill="#444" transform="scale(0.03125 0.03125)"><path d="M878.848 74.048c-1.696-4.224-5.088-7.52-9.344-9.088-4.256-1.536-8.992-1.248-12.992 0.864l-380.992 201.024c-7.168 3.776-10.368 12.32-7.456 19.872l7.84 20.512-219.936 120.608c-7.2 3.936-10.24 12.64-7.104 20.16l7.296 17.568-233.568 111.616c-7.68 3.68-11.136 12.704-7.872 20.576l47.936 115.52c2.56 6.144 8.48 9.888 14.784 9.888 1.792 0 3.584-0.288 5.344-0.928l244-86.432 7.296 17.568c2.528 6.112 8.448 9.888 14.784 9.888 1.472 0 2.944-0.192 4.448-0.64l232.832-67.104 6.976 18.208c2.368 6.304 8.416 10.272 14.88 10.272 1.568 0 3.136-0.224 4.704-0.704l416-128c4.288-1.312 7.808-4.352 9.728-8.384 1.92-4.032 2.080-8.704 0.416-12.832l-160-400.032zM86.4 687.008l-36.288-87.488 218.336-104.352 46.048 111.040-228.096 80.8zM358.112 627.936l-7.616-18.368c0 0 0 0 0 0l-58.976-142.24c0 0 0 0 0 0l-7.616-18.336 202.752-111.2 75.968 196.288 12 31.392-216.512 62.464zM617.6 588.32l-6.496-16.992c-0.096-0.352-0.032-0.768-0.192-1.12l-19.776-51.104-88.128-230.592 352.736-186.080 146.944 367.36-385.088 118.528zM926.848 10.048c-3.296-8.224-12.64-12.192-20.8-8.928-8.192 3.296-12.192 12.608-8.928 20.8l192 480c2.528 6.272 8.544 10.080 14.88 10.080 1.984 0 4-0.352 5.952-1.152 8.192-3.296 12.192-12.608 8.928-20.8l-192.032-480zM576 672h-96c-36.48 0-64 27.52-64 64v42.080l-188.128 219.488c-5.76 6.688-4.992 16.8 1.728 22.56 3.008 2.592 6.72 3.872 10.4 3.872 4.512 0 8.992-1.888 12.128-5.6l187.232-218.4h72.64v208c0 8.832 7.168 16 16 16s16-7.168 16-16v-208h72.64l187.2 218.4c3.168 3.712 7.648 5.6 12.16 5.6 3.68 0 7.392-1.28 10.4-3.872 6.72-5.76 7.488-15.84 1.728-22.56l-188.128-219.488v-39.68c0-37.216-28.096-66.4-64-66.4zM608 768h-160v-32c0-18.848 13.152-32 32-32h96c18.24 0 32 14.784 32 34.4v29.6z" /></g></svg>