<svg width="115.819" height="34.975" viewBox="0 0 115.819 34.975" xmlns="http://www.w3.org/2000/svg"><g fill="#fff"><path d="M.85 3.242v10.93h1.345v-4.8h4.762V8.158H2.195V4.456H7.7V3.242zM11.054 14.327c1.276 0 2.141-.448 2.79-1.461l.07 1.306h1.075V9.387c0-1.932-1.19-3.1-3.054-3.1-1.623 0-2.76.851-3.06 2.297l1.205.015c.224-.742.835-1.19 1.793-1.19 1.19 0 1.902.742 1.902 2.048v.557a6.586 6.586 0 00-2.234-.402c-1.948 0-3.092.95-3.084 2.427-.008 1.391.935 2.288 2.597 2.288zM9.74 11.969c-.008-.773.65-1.33 1.855-1.33.796 0 1.438.132 2.165.441-.1 1.137-.959 2.157-2.482 2.157-1.051 0-1.546-.51-1.538-1.268zM18.9 14.327c1.848 0 2.899-.974 2.899-2.25 0-2.898-4.36-1.847-4.36-3.725 0-.55.464-1.036 1.337-1.036.99 0 1.531.471 1.57 1.322h1.167c-.016-1.492-.928-2.35-2.675-2.35-1.654 0-2.62.958-2.62 2.14 0 2.954 4.336 1.802 4.336 3.758 0 .672-.54 1.128-1.623 1.12-1.19 0-1.731-.51-1.77-1.414h-1.183c.062 1.538 1.121 2.435 2.922 2.435zM25.95 14.296c.286 0 .595-.03.843-.108v-1.175a2.63 2.63 0 01-.773.108c-.835 0-1.268-.471-1.268-1.685V7.54h2.01V6.442h-2.01v-2.01l-1.26.163v1.847h-1.283V7.54h1.275l-.008 3.896c0 1.932.843 2.86 2.474 2.86zM29.823 13.724c0-.757-.44-1.167-.943-1.167a.818.818 0 00-.827.827c0 .471.34.843.819.843h.046c-.07.378-.293.657-.765.811v.89c.974-.333 1.67-1.037 1.67-2.204zM37.19 14.327c1.847 0 2.898-.974 2.898-2.25 0-2.898-4.36-1.847-4.36-3.725 0-.55.464-1.036 1.338-1.036.99 0 1.53.471 1.57 1.322h1.166c-.015-1.492-.927-2.35-2.674-2.35-1.654 0-2.62.958-2.62 2.14 0 2.954 4.336 1.802 4.336 3.758 0 .672-.541 1.128-1.623 1.12-1.19 0-1.732-.51-1.77-1.414h-1.183c.061 1.538 1.12 2.435 2.922 2.435zM44.541 14.327c1.894 0 3.239-.85 3.64-2.682h-1.298c-.294 1.082-1.128 1.561-2.296 1.561-1.468 0-2.435-.95-2.527-2.59h6.191c.024-.278.031-.533.031-.811 0-2.257-1.445-3.517-3.555-3.517-2.289 0-3.974 1.7-3.974 4.097 0 2.404 1.469 3.942 3.788 3.942zm.155-6.934c1.352 0 2.272.78 2.303 2.203h-4.878c.263-1.33 1.23-2.203 2.575-2.203zM52.758 14.327c1.894 0 3.185-.889 3.649-2.566h-1.299c-.332.958-1.059 1.453-2.25 1.453-1.522 0-2.52-1.067-2.52-2.907 0-1.7 1.075-2.906 2.52-2.906 1.191 0 1.864.471 2.165 1.445h1.322c-.433-1.716-1.577-2.558-3.494-2.558-2.172 0-3.811 1.731-3.811 4.05 0 2.412 1.523 3.989 3.718 3.989zM60.31 14.327c1.013 0 1.887-.48 2.428-1.268v1.113h1.275v-7.73h-1.275v4.515c0 1.352-.897 2.234-2.103 2.234-1.175 0-1.886-.735-1.886-2.049v-4.7h-1.283v4.909c0 1.809 1.082 2.976 2.844 2.976zM65.722 14.172h1.252v-3.726c0-1.731.935-2.883 2.218-2.883.302 0 .526.047.75.124V6.396a3.032 3.032 0 00-.75-.085c-.966 0-1.785.61-2.21 1.685V6.442h-1.26zM74.263 14.327c1.894 0 3.24-.85 3.641-2.682h-1.298c-.294 1.082-1.129 1.561-2.296 1.561-1.469 0-2.435-.95-2.528-2.59h6.192c.023-.278.03-.533.03-.811 0-2.257-1.445-3.517-3.555-3.517-2.288 0-3.973 1.7-3.973 4.097 0 2.404 1.468 3.942 3.787 3.942zm.155-6.934c1.353 0 2.273.78 2.304 2.203h-4.878c.263-1.33 1.229-2.203 2.574-2.203zM84.792 14.327c1.275 0 2.141-.448 2.79-1.461l.07 1.306h1.074V9.387c0-1.932-1.19-3.1-3.053-3.1-1.623 0-2.76.851-3.061 2.297l1.206.015c.224-.742.835-1.19 1.793-1.19 1.19 0 1.902.742 1.902 2.048v.557a6.586 6.586 0 00-2.234-.402c-1.948 0-3.092.95-3.085 2.427-.007 1.391.936 2.288 2.598 2.288zm-1.314-2.358c-.008-.773.649-1.33 1.855-1.33.796 0 1.438.132 2.164.441-.1 1.137-.958 2.157-2.481 2.157-1.051 0-1.546-.51-1.538-1.268zM90.311 14.172h1.283V9.658c0-1.353.897-2.234 2.103-2.234 1.175 0 1.886.734 1.886 2.048v4.7h1.283V9.256c0-1.809-1.09-2.968-2.844-2.968-1.013 0-1.887.479-2.428 1.267V6.442h-1.283zM105.547 14.172V3.242h-1.275v4.337c-.626-.866-1.515-1.291-2.567-1.291-2.087 0-3.617 1.53-3.617 4.027 0 2.481 1.53 4.012 3.61 4.012 1.05 0 1.948-.425 2.574-1.29v1.135zm-3.718-.974c-1.446 0-2.435-1.105-2.435-2.898 0-1.778.99-2.884 2.45-2.884 1.508 0 2.536 1.106 2.536 2.891 0 1.786-1.028 2.891-2.551 2.891z"/></g><g fill="#fff"><path d="M.85 31.587h1.253V27.86c0-1.732.935-2.883 2.218-2.883.302 0 .526.046.75.123v-1.29a3.032 3.032 0 00-.75-.086c-.966 0-1.786.611-2.21 1.685v-1.553H.85zM9.392 31.741c1.894 0 3.239-.85 3.641-2.682h-1.299c-.293 1.082-1.128 1.562-2.296 1.562-1.468 0-2.435-.951-2.527-2.59h6.192c.023-.278.03-.533.03-.812 0-2.257-1.445-3.517-3.555-3.517-2.288 0-3.974 1.7-3.974 4.097 0 2.404 1.47 3.942 3.788 3.942zm.155-6.933c1.352 0 2.272.78 2.303 2.203H6.973c.262-1.33 1.229-2.203 2.574-2.203zM14.355 31.587h1.283v-10.93h-1.283zM17.996 22.187a.807.807 0 00.796-.804.807.807 0 00-.796-.804.808.808 0 00-.804.804c0 .44.363.804.804.804zm-.65 9.4h1.284v-7.73h-1.284zM22.471 31.741c1.276 0 2.142-.448 2.791-1.46l.07 1.306h1.074v-4.785c0-1.933-1.19-3.1-3.053-3.1-1.624 0-2.76.85-3.061 2.296l1.205.015c.225-.742.835-1.19 1.794-1.19 1.19 0 1.901.742 1.901 2.048v.557a6.586 6.586 0 00-2.234-.402c-1.948 0-3.092.95-3.084 2.427-.008 1.392.936 2.288 2.597 2.288zm-1.314-2.357c-.007-.773.65-1.33 1.856-1.33.796 0 1.437.132 2.164.44-.1 1.137-.959 2.157-2.481 2.157-1.052 0-1.546-.51-1.539-1.267zM27.99 31.587h1.284V30.45c.626.865 1.515 1.29 2.566 1.29 2.08 0 3.618-1.53 3.618-4.027 0-2.481-1.53-4.012-3.61-4.012-1.051 0-1.948.425-2.574 1.291v-4.337h-1.283zm3.711-.974c-1.515 0-2.535-1.106-2.535-2.891 0-1.786 1.028-2.891 2.55-2.891 1.446 0 2.436 1.105 2.436 2.899 0 1.777-.997 2.883-2.45 2.883zM36.734 31.587h1.283v-10.93h-1.283zM43.05 31.741c1.893 0 3.238-.85 3.64-2.682h-1.299c-.293 1.082-1.128 1.562-2.296 1.562-1.468 0-2.435-.951-2.527-2.59h6.192c.023-.278.03-.533.03-.812 0-2.257-1.445-3.517-3.555-3.517-2.289 0-3.974 1.7-3.974 4.097 0 2.404 1.469 3.942 3.788 3.942zm.154-6.933c1.352 0 2.272.78 2.303 2.203H40.63c.262-1.33 1.229-2.203 2.574-2.203zM51.444 31.587h1.283v-4.515c0-1.352.897-2.234 2.103-2.234 1.175 0 1.886.735 1.886 2.049v4.7h1.283V26.67c0-1.808-1.09-2.968-2.845-2.968-1.012 0-1.886.48-2.427 1.268v-4.314h-1.283zM63.101 31.741c2.234 0 3.981-1.754 3.981-4.011 0-2.265-1.747-4.028-3.973-4.028-2.234 0-3.989 1.755-3.989 4.012 0 2.265 1.755 4.027 3.981 4.027zm.008-1.128c-1.515 0-2.675-1.23-2.675-2.899 0-1.654 1.16-2.883 2.667-2.883 1.515 0 2.675 1.229 2.675 2.899 0 1.654-1.16 2.883-2.667 2.883zM70.592 31.741c1.847 0 2.898-.974 2.898-2.249 0-2.899-4.36-1.848-4.36-3.726 0-.549.464-1.036 1.338-1.036.99 0 1.53.472 1.57 1.322h1.166c-.015-1.492-.927-2.35-2.674-2.35-1.655 0-2.62.959-2.62 2.141 0 2.953 4.336 1.801 4.336 3.757 0 .673-.541 1.129-1.624 1.121-1.19 0-1.731-.51-1.77-1.415H67.67c.061 1.539 1.12 2.435 2.922 2.435zM77.641 31.71c.286 0 .596-.03.843-.108v-1.175a2.63 2.63 0 01-.773.109c-.835 0-1.268-.472-1.268-1.686v-3.896h2.01v-1.097h-2.01v-2.01l-1.26.162v1.848H73.9v1.097h1.275l-.007 3.896c0 1.933.842 2.86 2.473 2.86zM80.138 22.187a.807.807 0 00.796-.804.807.807 0 00-.796-.804.808.808 0 00-.804.804c0 .44.364.804.804.804zm-.65 9.4h1.284v-7.73H79.49zM82.48 31.587h1.284v-4.515c0-1.352.896-2.234 2.102-2.234 1.175 0 1.886.735 1.886 2.049v4.7h1.284V26.67c0-1.808-1.09-2.968-2.845-2.968-1.013 0-1.886.48-2.427 1.268v-1.113H82.48zM94.076 34.942c2.218 0 3.64-1.384 3.64-3.896v-7.19h-1.275v1.137c-.626-.866-1.515-1.29-2.566-1.29-2.087 0-3.618 1.53-3.618 4.027 0 2.48 1.53 4.011 3.61 4.011 1.051 0 1.948-.425 2.574-1.29v.819c0 1.762-.85 2.62-2.42 2.62-1.22 0-1.917-.51-2.172-1.507h-1.236c.34 1.639 1.515 2.559 3.463 2.559zm-.078-4.33c-1.445 0-2.435-1.105-2.435-2.898 0-1.778.99-2.883 2.45-2.883 1.508 0 2.536 1.105 2.536 2.89 0 1.786-1.028 2.892-2.55 2.892z"/></g></svg>