<svg width="72.9" height="24.125" viewBox="0 0 72.9 24.125" xmlns="http://www.w3.org/2000/svg"><g fill="#111"><path d="M3.882 9.83c1.15 0 2.063-.446 2.556-1.321l.075 1.214h.731V5.878H4.561v.77H6.38v.095c0 1.13-.758 2.264-2.429 2.264-1.808 0-2.652-1.177-2.652-3.05 0-1.914 1.019-3.022 2.663-3.022 1.32 0 2.09.573 2.301 1.67h.95C6.958 3.03 5.85 2.118 3.956 2.118 1.745 2.118.34 3.656.34 5.99c0 2.423 1.353 3.84 3.543 3.84zM10.734 9.83c1.533 0 2.731-1.205 2.731-2.753 0-1.554-1.198-2.763-2.726-2.763-1.532 0-2.736 1.204-2.736 2.752 0 1.554 1.204 2.763 2.731 2.763zm.005-.775c-1.039 0-1.835-.843-1.835-1.989 0-1.135.796-1.978 1.83-1.978 1.04 0 1.835.843 1.835 1.989 0 1.135-.795 1.978-1.83 1.978zM16.308 9.808c.196 0 .408-.021.578-.074v-.806c-.186.053-.34.074-.53.074-.573 0-.87-.323-.87-1.156V5.173h1.379V4.42h-1.379V3.04l-.864.111V4.42h-.88v.753h.874l-.005 2.673c0 1.326.578 1.962 1.697 1.962zM21.415 9.83c.875 0 1.47-.308 1.915-1.003l.047.896h.738V6.44c0-1.325-.817-2.126-2.095-2.126-1.114 0-1.894.583-2.1 1.575l.827.01c.154-.509.573-.816 1.23-.816.817 0 1.305.509 1.305 1.405v.382a4.519 4.519 0 00-1.533-.276c-1.336 0-2.121.653-2.116 1.666-.005.954.642 1.57 1.782 1.57zm-.901-1.618c-.006-.53.445-.912 1.272-.912.547 0 .987.09 1.485.302-.069.78-.657 1.48-1.702 1.48-.721 0-1.06-.35-1.055-.87zM25.202 9.723h.88V6.626c0-.928.615-1.533 1.443-1.533.806 0 1.294.504 1.294 1.406v3.224h.88V6.35c0-1.24-.748-2.036-1.952-2.036-.694 0-1.294.329-1.665.87V4.42h-.88zM33.629 3.274c.297 0 .546-.249.546-.551a.553.553 0 00-.546-.552.555.555 0 00-.552.552c0 .302.25.551.552.551zm-.446 6.45h.88V4.42h-.88zM40.062 9.723V2.224h-.875V5.2c-.43-.594-1.04-.885-1.76-.885-1.433 0-2.483 1.05-2.483 2.763 0 1.702 1.05 2.752 2.477 2.752.721 0 1.336-.291 1.766-.885v.78zm-2.55-.668c-.993 0-1.672-.758-1.672-1.989 0-1.22.68-1.978 1.682-1.978 1.034 0 1.74.758 1.74 1.984 0 1.225-.706 1.983-1.75 1.983zM43.515 9.83c1.299 0 2.222-.584 2.497-1.84h-.89c-.202.742-.775 1.07-1.576 1.07-1.007 0-1.67-.652-1.734-1.776h4.248c.016-.191.021-.366.021-.557 0-1.549-.991-2.413-2.44-2.413-1.569 0-2.725 1.167-2.725 2.81 0 1.65 1.008 2.705 2.599 2.705zm.106-4.758c.928 0 1.559.536 1.58 1.512h-3.346c.18-.913.843-1.512 1.766-1.512zM48.383 9.83c.875 0 1.47-.308 1.915-1.003l.047.896h.738V6.44c0-1.325-.817-2.126-2.095-2.126-1.114 0-1.894.583-2.1 1.575l.827.01c.154-.509.573-.816 1.23-.816.817 0 1.305.509 1.305 1.405v.382a4.519 4.519 0 00-1.533-.276c-1.336 0-2.121.653-2.116 1.666-.005.954.642 1.57 1.782 1.57zm-.901-1.618c-.006-.53.445-.912 1.272-.912.547 0 .987.09 1.485.302-.069.78-.657 1.48-1.702 1.48-.721 0-1.06-.35-1.055-.87zM53.729 6.801v.785h.795v-.811c0-1.056 2.032-.775 2.032-2.7 0-1.156-.79-1.957-2.254-1.957-1.38 0-2.297.806-2.302 2.164h.785c.005-.891.514-1.421 1.495-1.421.923 0 1.454.44 1.454 1.262 0 1.421-2.005 1.029-2.005 2.678zm.398 3.012a.584.584 0 00.578-.583.578.578 0 10-.578.583z"/></g><g fill="#111"><path d="M3.882 21.777c1.15 0 2.063-.446 2.556-1.32l.075 1.214h.731v-3.845H4.561v.769H6.38v.095c0 1.13-.758 2.265-2.429 2.265-1.808 0-2.652-1.177-2.652-3.05 0-1.914 1.019-3.023 2.663-3.023 1.32 0 2.09.573 2.301 1.671h.95c-.255-1.575-1.363-2.487-3.257-2.487-2.211 0-3.617 1.538-3.617 3.871 0 2.424 1.353 3.84 3.543 3.84zM10.644 21.777c1.3 0 2.222-.583 2.498-1.84h-.891c-.202.742-.774 1.07-1.575 1.07-1.008 0-1.67-.651-1.734-1.776h4.248c.016-.19.02-.366.02-.557 0-1.548-.99-2.413-2.439-2.413-1.57 0-2.726 1.167-2.726 2.811 0 1.65 1.008 2.705 2.599 2.705zm.106-4.757c.928 0 1.56.535 1.58 1.511H8.984c.18-.912.843-1.511 1.766-1.511zM16.08 21.756c.196 0 .408-.022.578-.075v-.806c-.186.053-.34.075-.53.075-.573 0-.87-.324-.87-1.157V17.12h1.379v-.753h-1.38V14.99l-.864.11v1.268h-.88v.753h.875l-.005 2.673c0 1.326.578 1.963 1.697 1.963zM20.169 15.222c.297 0 .546-.25.546-.552a.553.553 0 00-.546-.551.555.555 0 00-.552.551c0 .303.25.552.552.552zm-.446 6.449h.88v-5.304h-.88zM23.85 21.756c.196 0 .408-.022.578-.075v-.806c-.186.053-.34.075-.53.075-.574 0-.87-.324-.87-1.157V17.12h1.378v-.753h-1.379V14.99l-.864.11v1.268h-.88v.753h.875l-.006 2.673c0 1.326.578 1.963 1.697 1.963zM29.864 21.777c1.532 0 2.73-1.204 2.73-2.753 0-1.553-1.198-2.763-2.725-2.763-1.533 0-2.737 1.204-2.737 2.753 0 1.554 1.204 2.763 2.732 2.763zm.005-.774c-1.04 0-1.835-.844-1.835-1.99 0-1.134.795-1.977 1.83-1.977 1.039 0 1.835.843 1.835 1.988 0 1.135-.796 1.979-1.83 1.979zM33.406 21.67h.88v-3.096c0-.928.616-1.533 1.443-1.533.806 0 1.294.504 1.294 1.405v3.225h.88v-3.373c0-1.241-.747-2.037-1.951-2.037-.695 0-1.294.33-1.665.87v-.764h-.88zM39.033 21.67h.88v-7.498h-.88zM41.531 15.222c.297 0 .546-.25.546-.552a.553.553 0 00-.546-.551.555.555 0 00-.551.551c0 .303.249.552.551.552zm-.445 6.449h.88v-5.304h-.88zM43.138 21.67h.88v-3.096c0-.928.616-1.533 1.443-1.533.806 0 1.294.504 1.294 1.405v3.225h.88v-3.373c0-1.241-.747-2.037-1.951-2.037-.695 0-1.294.33-1.666.87v-.764h-.88zM51.045 21.777c1.3 0 2.223-.583 2.498-1.84h-.89c-.202.742-.775 1.07-1.576 1.07-1.007 0-1.67-.651-1.734-1.776h4.248c.016-.19.021-.366.021-.557 0-1.548-.991-2.413-2.44-2.413-1.57 0-2.725 1.167-2.725 2.811 0 1.65 1.007 2.705 2.598 2.705zm.106-4.757c.929 0 1.56.535 1.58 1.511h-3.346c.18-.912.844-1.511 1.766-1.511zM54.7 21.761a.583.583 0 00.578-.578.575.575 0 00-.579-.573.57.57 0 00-.572.573c0 .313.249.578.572.578z"/></g></svg>